<svg width="212" height="48" viewBox="0 0 212 48" fill="none" xmlns="http://www.w3.org/2000/svg">
<g clip-path="url(#clip0_30_44)">
<path d="M206.814 31.424L205.47 37.888C204.958 39.808 204.19 41.536 203.23 43.008C202.27 44.288 201.182 45.504 199.71 46.464C198.174 47.552 196.318 48.064 194.078 48.064C191.838 48.064 190.174 47.552 189.022 46.464C187.934 45.504 187.358 44.288 187.102 43.008C186.654 41.536 186.654 39.872 187.038 37.888L192.926 10.176C193.374 8.32 194.078 6.656 195.102 5.12C196.062 3.84 197.086 2.56 198.558 1.6C200.03 0.639999 201.95 0 204.254 0C206.558 0 208.158 0.639999 209.246 1.6C210.334 2.56 210.974 3.84 211.23 5.12C211.678 6.528 211.678 8.192 211.358 10.176L209.95 16.64H203.486L204.894 10.176C205.15 8.96 205.022 7.936 204.446 7.232C204.19 6.912 203.678 6.72 202.974 6.72C201.758 6.72 200.99 7.616 200.478 8.448C200.286 8.896 200.03 9.472 199.838 10.176L193.95 37.888C193.758 39.104 193.886 40.128 194.398 40.832C194.654 41.152 195.038 41.344 195.614 41.344C197.086 41.344 197.854 40.576 198.366 39.616C198.558 39.232 198.814 38.656 199.006 37.888L200.35 31.424H206.814Z" fill="white"/>
<path d="M183.359 0.512001H190.271L180.287 47.552H173.375L183.359 0.512001Z" fill="white"/>
<path d="M159.141 7.616L160.677 0.512001H180.645L179.109 7.616H172.581L164.133 47.552H157.221L165.669 7.616H159.141Z" fill="white"/>
<path d="M140.355 23.04L140.227 20.864H139.843L134.211 47.552H127.875L137.859 0.512001H144.003L145.475 25.024L145.603 27.2H145.987L151.683 0.512001H158.019L148.035 47.552H141.891L140.355 23.04Z" fill="white"/>
<path d="M95.0465 0.512001H101.959L93.3185 41.152H102.471L101.127 47.552H85.0625L95.0465 0.512001Z" fill="white"/>
<path d="M75.4215 0.512001H91.2295L89.6935 7.616H80.7975L78.1735 19.968H84.5735L82.9735 27.52H76.5735L73.8215 40.448H82.7175L81.2455 47.552H65.4375L75.4215 0.512001Z" fill="white"/>
<path d="M51.2035 7.616L52.7395 0.512001H72.7075L71.1715 7.616H64.6435L56.1955 47.552H49.2835L57.7315 7.616H51.2035Z" fill="white"/>
<path d="M36.2245 15.552L36.2885 16H36.4165L36.7365 15.552L43.3925 0.511963H50.1765L37.3765 27.52L33.1525 47.552H26.2405L30.4645 27.52L29.1845 0.511963H35.9685L36.2245 15.552Z" fill="white"/>
<path d="M0 47.552L9.984 0.512001H16.064C20.16 0.512001 23.168 1.28 24.896 3.264C26.624 5.248 27.008 8.32 25.984 12.992C25.536 15.232 24.96 16.896 23.936 18.432C22.912 19.968 21.632 21.248 19.648 22.72C22.656 24.576 23.04 29.632 22.016 34.24C21.248 37.824 19.968 40.832 17.856 43.328C15.616 45.824 12.608 47.36 8.512 47.552H0ZM12.736 19.904C13.312 19.904 14.656 19.968 16 19.2C17.28 18.432 18.496 16.896 19.2 13.632C19.52 12.032 19.584 10.752 19.392 9.92C18.944 8.192 17.92 7.488 16.768 7.424C16.192 7.36 15.744 7.36 15.424 7.36L12.736 19.904ZM8.32 40.704C8.896 40.704 10.24 40.832 11.584 40C12.864 39.168 14.208 37.312 14.976 33.472C15.424 31.552 15.552 30.08 15.36 29.056C14.976 27.072 13.952 26.304 12.736 26.24C12.16 26.24 11.712 26.24 11.392 26.24L8.32 40.704Z" fill="white"/>
<path fill-rule="evenodd" clip-rule="evenodd" d="M103 47.5H110L113 38H119.5L118.961 47.5H125.672L126.629 30.2414C124.92 27.0221 121.804 24.6398 118.286 22.6854C116.829 21.8761 115.014 20.7164 113.258 19.357C113.125 19.7237 112.991 20.0941 112.856 20.4676C109.567 29.5495 105.59 40.5344 103 47.5ZM115.062 14.377C116.892 15.96 119.048 17.389 120.714 18.3146C122.825 19.4873 125.062 20.937 127.042 22.7784L128 5.5C128 5.18976 128.017 4.82178 128.036 4.4283C128.065 3.80679 128.097 3.12167 128.069 2.5C128.019 1.40081 127.28 0.5 126.5 0.5H122C120.5 0.5 119.752 1.96061 119.5 2.5C119.107 3.34084 118.946 3.78936 118.782 4.24631C118.699 4.47797 118.615 4.7118 118.5 5C118.164 5.84112 116.846 9.45555 115.062 14.377Z" fill="white"/>
</g>
<defs>
<clipPath id="clip0_30_44">
<rect width="212" height="48" fill="white"/>
</clipPath>
</defs>
</svg>
